<svg width="256" height="256" viewBox="0 0 256 256" fill="none" xmlns="http://www.w3.org/2000/svg">
  <defs>
    <linearGradient id="bg" x1="40" y1="28" x2="220" y2="224" gradientUnits="userSpaceOnUse">
      <stop offset="0%" stop-color="#0E1530" />
      <stop offset="52%" stop-color="#151A3F" />
      <stop offset="100%" stop-color="#26144A" />
    </linearGradient>
    <linearGradient id="ring" x1="46" y1="36" x2="214" y2="220" gradientUnits="userSpaceOnUse">
      <stop offset="0%" stop-color="#6DF7FF" />
      <stop offset="48%" stop-color="#19D5FF" />
      <stop offset="100%" stop-color="#9A5BFF" />
    </linearGradient>
    <linearGradient id="core" x1="78" y1="64" x2="182" y2="188" gradientUnits="userSpaceOnUse">
      <stop offset="0%" stop-color="#7AF2FF" />
      <stop offset="52%" stop-color="#2BC7FF" />
      <stop offset="100%" stop-color="#A15BFF" />
    </linearGradient>
    <linearGradient id="sheen" x1="86" y1="70" x2="172" y2="148" gradientUnits="userSpaceOnUse">
      <stop offset="0%" stop-color="#FFFFFF" stop-opacity="0.92" />
      <stop offset="46%" stop-color="#FFFFFF" stop-opacity="0.16" />
      <stop offset="100%" stop-color="#FFFFFF" stop-opacity="0" />
    </linearGradient>
    <filter id="shadow" x="10" y="12" width="236" height="236" filterUnits="userSpaceOnUse" color-interpolation-filters="sRGB">
      <feDropShadow dx="0" dy="18" stdDeviation="18" flood-color="#020617" flood-opacity="0.48" />
      <feDropShadow dx="0" dy="0" stdDeviation="12" flood-color="#31D8FF" flood-opacity="0.18" />
    </filter>
  </defs>

  <g filter="url(#shadow)">
    <rect x="26" y="26" width="204" height="204" rx="58" fill="url(#bg)" />
    <rect x="29" y="29" width="198" height="198" rx="55" stroke="url(#ring)" stroke-width="6" stroke-opacity="0.92" />

    <path
      d="M128 58L176 78V119C176 154 154.93 185.93 128 198C101.07 185.93 80 154 80 119V78L128 58Z"
      fill="url(#core)"
      fill-opacity="0.2"
      stroke="url(#core)"
      stroke-width="7"
      stroke-linejoin="round"
    />

    <path
      d="M104 92.5H134C152.78 92.5 168 107.72 168 126.5C168 145.28 152.78 160.5 134 160.5H104V92.5Z"
      fill="url(#core)"
    />
    <path
      d="M116 108H134C144.49 108 153 116.51 153 127C153 137.49 144.49 146 134 146H116V108Z"
      fill="#081225"
      fill-opacity="0.82"
    />
    <path
      d="M104 92.5H134C152.78 92.5 168 107.72 168 126.5C168 145.28 152.78 160.5 134 160.5H104V92.5Z"
      fill="url(#sheen)"
    />

    <circle cx="97" cy="99" r="6" fill="#7AF2FF" />
    <circle cx="92" cy="129" r="5.5" fill="#8E6BFF" />
    <circle cx="97" cy="156" r="4.75" fill="#7AF2FF" />
    <path d="M97 99V156" stroke="url(#core)" stroke-width="4.5" stroke-linecap="round" opacity="0.92" />
    <path d="M97 99H112" stroke="url(#core)" stroke-width="4.5" stroke-linecap="round" opacity="0.92" />
    <path d="M92 129H112" stroke="url(#core)" stroke-width="4.5" stroke-linecap="round" opacity="0.92" />
    <path d="M97 156H112" stroke="url(#core)" stroke-width="4.5" stroke-linecap="round" opacity="0.92" />

    <path d="M173 76L176.2 83.2L184 86.4L176.2 89.6L173 96.8L169.8 89.6L162 86.4L169.8 83.2L173 76Z" fill="#F8FAFC" fill-opacity="0.96" />
  </g>
</svg>
